<?xml version="1.0" encoding="UTF-8"?>
<!DOCTYPE svg PUBLIC "-//W3C//DTD SVG 1.1//EN" "http://www.w3.org/Graphics/SVG/1.1/DTD/svg11.dtd">
<!-- Creator: CorelDRAW X8 -->
<svg xmlns="http://www.w3.org/2000/svg" xml:space="preserve" width="26.4578mm" height="26.4578mm" version="1.1" style="shape-rendering:geometricPrecision; text-rendering:geometricPrecision; image-rendering:optimizeQuality; fill-rule:evenodd; clip-rule:evenodd"
viewBox="0 0 679 679"
 xmlns:xlink="http://www.w3.org/1999/xlink">
 <defs>
  <style type="text/css">
   <![CDATA[
    .fil2 {fill:#FEFEFE}
    .fil0 {fill:#99CB4D}
    .fil1 {fill:#99CB4D;fill-rule:nonzero}
   ]]>
  </style>
 </defs>
 <g id="Слой_x0020_1">
  <metadata id="CorelCorpID_0Corel-Layer"/>
  <g id="_666911040">
   <path class="fil0" d="M339 679c-9,0 -18,-6 -25,-16 -4,-8 -11,-12 -19,-12 -5,0 -11,3 -15,7 -7,6 -15,10 -22,10 -12,0 -22,-9 -26,-23 -4,-10 -11,-16 -21,-16 -4,0 -8,1 -12,3 -6,3 -11,4 -17,4 -15,0 -25,-12 -26,-29 0,-13 -9,-22 -22,-22 -2,0 -4,0 -6,0 -13,4 -24,0 -31,-8 -5,-7 -6,-16 -4,-26 2,-8 0,-15 -4,-20 -4,-5 -10,-8 -17,-9 -12,0 -22,-5 -27,-13 -4,-8 -4,-19 2,-29 3,-7 4,-14 1,-20 -2,-6 -8,-11 -15,-13 -11,-4 -19,-11 -21,-20 -3,-9 0,-19 8,-28 5,-5 8,-12 7,-19 -1,-6 -5,-12 -11,-16 -10,-6 -16,-15 -16,-25 0,-9 6,-18 16,-25 6,-3 10,-9 11,-16 1,-6 -2,-13 -7,-18 -8,-9 -11,-19 -8,-29 2,-9 10,-16 21,-19 7,-3 13,-7 15,-13 3,-6 2,-13 -1,-20 -6,-11 -6,-21 -2,-29 5,-9 15,-14 27,-14 7,0 13,-3 17,-9 4,-5 6,-12 4,-19 -2,-10 -1,-20 4,-27 7,-8 18,-11 31,-8 2,0 4,1 6,1 13,0 22,-9 22,-22 1,-18 11,-30 26,-30 6,0 11,2 17,5 4,2 8,3 12,3 10,0 17,-7 21,-17 4,-14 14,-22 26,-22 7,0 15,3 22,9 4,5 10,7 15,7 8,0 15,-4 19,-11 7,-10 16,-16 25,-16 10,0 19,6 25,16 5,7 11,11 19,11 6,0 11,-2 16,-7 7,-6 14,-9 22,-9 12,0 22,8 26,22 3,10 11,17 21,17 4,0 8,-1 12,-3 5,-3 11,-5 16,-5 15,0 26,12 26,30 1,13 10,22 22,22 2,0 4,-1 6,-1 13,-3 24,0 31,8 5,7 7,17 4,27 -1,7 0,14 4,19 4,6 11,9 18,9 12,0 21,5 26,14 5,8 4,18 -1,29 -4,7 -4,14 -2,20 3,6 8,10 15,13 11,3 19,10 22,19 2,10 -1,20 -9,29 -5,5 -7,12 -6,18 0,7 4,13 11,16 10,7 16,16 16,25 0,10 -6,19 -16,25 -7,4 -11,10 -11,16 -1,7 1,14 6,19 8,9 11,19 9,28 -3,9 -11,16 -22,20 -7,2 -12,7 -15,13 -2,6 -2,13 2,20 5,10 6,21 1,29 -5,8 -14,13 -26,13 -7,1 -14,4 -18,9 -4,5 -5,12 -4,20 3,10 1,19 -4,26 -7,8 -18,12 -30,8 -3,0 -5,0 -7,0 -12,0 -21,9 -22,22 0,18 -11,29 -26,29 -5,0 -11,-1 -16,-4 -4,-2 -8,-3 -12,-3 -10,0 -18,6 -21,16 -4,14 -14,23 -26,23 -8,0 -15,-4 -22,-10 -5,-4 -10,-7 -16,-7 -8,0 -15,4 -19,12 -6,10 -15,16 -25,16zm-44 -41c13,0 24,6 31,17 8,13 19,13 27,0 7,-11 18,-17 30,-17 9,0 18,4 25,10 4,4 9,6 13,6 6,0 10,-4 13,-13 5,-16 18,-26 34,-26 6,0 12,2 18,5 4,2 7,3 10,3 8,0 13,-6 13,-17 1,-20 15,-35 35,-35 3,0 6,1 9,1 3,1 5,1 7,1 3,0 8,-1 10,-4 3,-4 4,-9 2,-16 -2,-11 0,-22 6,-30 7,-9 17,-14 28,-14 8,0 13,-3 15,-7 3,-4 2,-10 -1,-16 -6,-10 -6,-22 -2,-31 4,-10 12,-18 23,-21 7,-2 12,-6 13,-10 1,-5 -1,-11 -6,-16 -8,-8 -11,-19 -10,-30 2,-10 8,-19 17,-25 7,-4 10,-9 10,-14 0,-5 -3,-9 -10,-13 -9,-6 -15,-15 -17,-26 -1,-11 2,-21 10,-30 5,-5 7,-10 6,-15 -1,-5 -6,-8 -13,-10 -11,-4 -19,-11 -23,-21 -4,-10 -4,-21 2,-31 3,-7 4,-12 1,-17 -2,-4 -7,-6 -15,-7 -11,0 -21,-5 -28,-13 -6,-9 -8,-20 -6,-31 2,-6 1,-12 -2,-15 -2,-4 -7,-5 -10,-5 -2,0 -4,1 -7,1 -3,1 -6,1 -9,1 -20,0 -34,-15 -35,-35 0,-10 -5,-16 -13,-16 -3,0 -6,1 -10,3 -6,3 -12,4 -18,4 -16,0 -29,-10 -34,-26 -3,-8 -7,-13 -13,-13 -4,0 -9,2 -13,6 -7,7 -16,11 -25,11 -12,0 -23,-7 -30,-18 -8,-12 -19,-12 -27,0 -7,11 -18,18 -31,18l0 0c-9,0 -18,-4 -25,-11 -4,-4 -8,-6 -12,-6 -6,0 -11,5 -13,13 -5,16 -19,26 -34,26 -6,0 -13,-1 -18,-4 -4,-2 -8,-3 -11,-3 -7,0 -12,6 -12,16 -1,20 -16,35 -36,35 -3,0 -6,0 -9,-1 -2,0 -4,-1 -6,-1 -3,0 -8,1 -11,5 -3,3 -3,9 -2,15 3,11 1,22 -6,31 -6,8 -16,13 -28,13 -7,1 -13,3 -15,7 -2,5 -2,10 2,17 5,10 6,21 2,31 -4,10 -13,17 -24,21 -7,2 -11,5 -12,10 -2,5 0,10 5,15 8,9 12,19 10,30 -1,11 -7,20 -17,26 -6,4 -9,8 -9,13 0,5 3,10 9,14 10,6 16,15 17,25 2,11 -2,22 -10,30 -5,5 -7,11 -5,16 1,4 5,8 12,10 11,3 20,11 24,21 4,9 3,21 -2,31 -4,6 -4,12 -2,16 2,4 8,7 15,7 12,0 22,5 28,14 7,8 9,19 6,30 -1,7 -1,12 2,16 3,3 8,4 11,4 2,0 4,0 6,-1 3,0 6,-1 9,-1 20,0 35,15 36,35 0,11 5,17 12,17 3,0 7,-1 11,-3 5,-3 12,-5 18,-5 15,0 29,10 34,26 2,9 7,13 13,13 4,0 8,-2 12,-6 7,-6 16,-10 25,-10z"/>
   <g>
    <path class="fil1" d="M303 139c-1,32 -6,46 -28,64l-11 9 0 -73c0,-7 -7,-13 -15,-13 -8,0 -15,6 -15,13l0 167c0,7 7,13 15,13 8,0 15,-6 15,-13l0 -59 19 -16 32 79c2,6 8,9 14,9 8,0 15,-6 15,-13 0,-2 -1,-4 -1,-5l-37 -89c22,-19 27,-36 27,-73 0,-7 -7,-13 -15,-13 -8,0 -15,6 -15,13zm89 154l0 -61 43 0c8,0 14,-5 14,-12 0,-7 -6,-12 -14,-12l-43 0 0 -57 52 0c8,0 15,-5 15,-12 0,-7 -7,-12 -15,-12l-67 0c-9,0 -15,5 -15,13l0 164c0,8 6,13 15,13l67 0c8,0 15,-5 15,-12 0,-6 -7,-12 -15,-12l-52 0z"/>
    <path class="fil1" d="M234 359c-8,0 -14,6 -14,12 0,7 6,12 14,12l27 0 0 155c0,7 7,13 15,13 8,0 15,-6 15,-13l0 -155 27 0c7,0 13,-5 13,-12 0,-6 -6,-12 -13,-12l-84 0z"/>
   </g>
   <g>
    <path class="fil1" d="M335 455c3,-11 6,-22 10,-32l0 0c2,-6 6,-18 11,-31 4,-7 7,-15 12,-22 4,-7 10,-13 15,-16 1,0 2,-1 3,-1l0 0c7,-3 13,-1 19,2 20,12 51,122 53,141 0,2 1,4 1,6l0 0c-1,16 -7,29 -17,39 -10,10 -23,16 -38,18 -2,0 -5,0 -7,0l0 0c-5,0 -9,0 -13,-1 -18,-2 -32,-8 -42,-18 -9,-11 -15,-25 -14,-43 0,-4 0,-7 0,-11 2,-10 4,-21 7,-31z"/>
    <path class="fil2" d="M393 518c-19,0 -34,-15 -34,-33 0,-19 15,-34 34,-34 18,0 33,15 33,34 0,18 -15,33 -33,33zm-21 -32c-1,-1 0,-2 2,-3 1,0 2,1 3,2 0,0 3,13 16,16 2,0 3,1 2,3 0,1 -1,2 -3,2 -16,-4 -20,-20 -20,-20z"/>
   </g>
  </g>
 </g>
</svg>
